<svg width="777" height="375" viewBox="0 0 777 375" fill="none" xmlns="http://www.w3.org/2000/svg">
<path d="M274.952 201.431C308.5 149.378 407.921 152.656 410 249C449.421 257.231 529 261 529 310C529 359 472.5 348 339 348C205.5 348 149 348 128.962 325.327C104.291 297.411 138.953 180.945 233.301 138.548C327.649 96.1516 470.091 80.561 549.801 183.23C549.801 183.23 550.801 123.23 568.301 94.2302C585.801 65.2302 637.436 32.7282 644.801 26.2302C649.65 21.9517 644.801 78.73 644.801 78.73L678.697 88.73C678.697 88.73 737.518 52.7299 749.301 52.7299C761.084 52.7299 717.589 116.072 726.301 143.23C743.301 196.23 695.801 220.055 655.301 205.73C655.301 205.73 613.284 261.366 678.697 268.73C731.028 274.622 738.435 304.057 734.5 317.73C730.565 331.403 705.552 338.005 655.301 333.5C605.049 328.995 597.801 289.73 597.801 289.73M125.32 149.378C125.32 149.378 81.1326 107.791 57.3065 138.548C33.4803 169.306 78.1002 203.381 67.7034 226.055C57.3067 248.73 50.302 233.533 32.3016 257.747C14.3012 281.961 32.2329 313.061 57.3067 317.73" stroke="#6398FF" stroke-width="50" stroke-linecap="round" stroke-linejoin="round"/>
</svg>
