<svg width="616" height="686" viewBox="0 0 616 686" fill="none" xmlns="http://www.w3.org/2000/svg">
<path d="M215.606 514.375C162.523 463.047 88.5369 352.096 233.581 164.836C395.517 -44.2322 530.111 26.0297 539.717 89.9025C549.323 153.775 401.932 208.03 415.135 119.166C423.769 61.0577 678.175 138.854 557.768 224.239C476.564 281.824 543.53 150.162 539.717 270.689C535.904 391.216 298.154 321.599 358.202 251.761C418.25 181.922 505.993 350.153 456.573 437.37C407.154 524.587 277.268 529.156 298.154 437.37C319.04 345.584 532.506 502.431 440.237 632.611C367.291 735.528 63.3206 522.537 28.982 437.37C8.35693 386.216 74.1128 360.506 89.2919 414.935" stroke="#5EE453" stroke-width="50" stroke-linecap="round" stroke-linejoin="round"/>
</svg>
