<svg width="942" height="700" viewBox="0 0 942 700" fill="none" xmlns="http://www.w3.org/2000/svg">
<path d="M539.276 225.318C596.487 244.905 616.117 273.981 608.592 295.96C601.068 317.938 579.68 337.736 509.065 313.56C438.451 289.384 437.912 252.551 443.497 239.438C449.082 226.324 482.065 205.732 539.276 225.318Z" stroke="#FECD43" stroke-width="50" stroke-linecap="round"/>
<path d="M423.91 167.753C399.293 94.3557 238.158 21.4014 103.898 26.5373M379.125 216.749C354.157 158.909 163.775 131.058 128 188M373.669 285.171C291.193 244.724 120.5 254.289 44.5 346.5M676.673 254.289C704.439 233.948 849.314 254.605 890.396 327.459C931.478 400.313 877.565 441.549 851.984 409.275M668.475 334.837C753.599 349.057 855.764 455.032 837.645 587.209M633.788 400.65C706.243 425.456 813.345 552.516 728.339 674.003" stroke="#FECD43" stroke-width="50" stroke-linecap="round"/>
</svg>
