<svg width="622" height="655" viewBox="0 0 622 655" fill="none" xmlns="http://www.w3.org/2000/svg">
<path d="M499.448 425.019C499.957 403.741 477.404 365.69 447.214 368.305C409.477 371.575 416.806 431.128 372.001 441.073C327.197 451.018 317.994 395.457 280.66 396.668C243.326 397.88 233.445 456.978 194.595 446.831C155.744 436.684 156.149 379.089 98.1089 402.593" stroke="#ED427F" stroke-width="50" stroke-linecap="round"/>
<path d="M220.299 360.482C168.842 303.418 105.691 170.024 237.02 81.3997C415.18 -38.8267 583.893 223.839 435.667 307.84C302.269 383.438 248.485 295.417 260.384 218.486C272.284 141.555 390.99 139.67 403.923 196.984C416.857 254.298 359.739 269.949 332.855 255.971" stroke="#ED427F" stroke-width="50" stroke-linecap="round"/>
</svg>
