<svg width="453" height="1324" viewBox="0 0 453 1324" fill="none" xmlns="http://www.w3.org/2000/svg">
<path d="M69.7576 188.647C66.488 148.374 100.523 81.5808 144.016 125.134C187.508 168.687 78.4998 371.023 79.7526 492.868C81.0054 614.713 169.306 646.655 173.219 757.925C177.132 869.196 85.9771 906.875 79.7526 985.784C71.3354 1092.49 194.084 1298.76 96.3831 1298.76C33.4563 1298.76 23.8976 1110.06 213.625 1122.23C389.156 1133.5 380.621 1298.76 301.059 1298.76C213.074 1298.76 309.131 1057.16 427.573 1179.53" stroke="#FECD43" stroke-width="50" stroke-linecap="round"/>
<path d="M123.69 44.8709L101.5 24.9995M60.2828 67.8966L39.749 51.9995" stroke="#FECD43" stroke-width="50" stroke-linecap="round"/>
</svg>
